<svg width="377" height="122" viewBox="0 0 377 122" fill="none" xmlns="http://www.w3.org/2000/svg">
<path d="M143.56 18.5703V79H133.143V18.5703H143.56ZM179.876 18.5703L155.389 47.6646L141.443 62.4399L139.617 52.1055L149.578 39.8203L167.176 18.5703H179.876ZM168.67 79L148.79 50.3623L155.97 43.2651L181.038 79H168.67ZM211.17 69.9937V48.5776C211.17 46.9728 210.879 45.5894 210.298 44.4272C209.717 43.2651 208.832 42.3659 207.642 41.7295C206.48 41.0931 205.014 40.7749 203.243 40.7749C201.61 40.7749 200.199 41.0516 199.009 41.605C197.819 42.1584 196.893 42.9054 196.229 43.8462C195.564 44.7869 195.232 45.8522 195.232 47.042H185.271C185.271 45.2712 185.7 43.5557 186.558 41.8955C187.416 40.2354 188.661 38.755 190.293 37.4546C191.926 36.1541 193.877 35.1304 196.146 34.3833C198.414 33.6362 200.96 33.2627 203.782 33.2627C207.158 33.2627 210.146 33.8299 212.747 34.9644C215.376 36.0988 217.437 37.8143 218.931 40.1108C220.453 42.3797 221.214 45.2297 221.214 48.6606V68.624C221.214 70.6715 221.352 72.5116 221.629 74.144C221.933 75.7489 222.362 77.1462 222.916 78.3359V79H212.664C212.194 77.9209 211.82 76.5513 211.543 74.8911C211.294 73.2033 211.17 71.5708 211.17 69.9937ZM212.623 51.6904L212.706 57.8745H205.525C203.672 57.8745 202.039 58.0544 200.628 58.4141C199.217 58.7461 198.041 59.2441 197.1 59.9082C196.159 60.5723 195.454 61.3747 194.983 62.3154C194.513 63.2562 194.278 64.3215 194.278 65.5112C194.278 66.701 194.555 67.7939 195.108 68.79C195.661 69.7585 196.464 70.5194 197.515 71.0728C198.594 71.6261 199.895 71.9028 201.417 71.9028C203.464 71.9028 205.249 71.4878 206.771 70.6577C208.32 69.8 209.537 68.7624 210.423 67.5449C211.308 66.2998 211.779 65.1239 211.834 64.0171L215.071 68.458C214.739 69.5924 214.172 70.8099 213.37 72.1104C212.567 73.4108 211.516 74.6559 210.215 75.8457C208.943 77.0078 207.407 77.9624 205.608 78.7095C203.838 79.4565 201.79 79.8301 199.466 79.8301C196.533 79.8301 193.918 79.249 191.622 78.0869C189.325 76.8971 187.527 75.3062 186.226 73.314C184.926 71.2941 184.275 69.0114 184.275 66.4658C184.275 64.0863 184.718 61.9834 185.604 60.1572C186.517 58.3034 187.845 56.7539 189.588 55.5088C191.359 54.2637 193.517 53.3229 196.062 52.6865C198.608 52.0225 201.513 51.6904 204.778 51.6904H212.623ZM242.381 34.0928V79H232.337V34.0928H242.381ZM231.673 22.3057C231.673 20.7839 232.171 19.5249 233.167 18.5288C234.191 17.505 235.602 16.9932 237.4 16.9932C239.171 16.9932 240.569 17.505 241.592 18.5288C242.616 19.5249 243.128 20.7839 243.128 22.3057C243.128 23.7998 242.616 25.0449 241.592 26.041C240.569 27.0371 239.171 27.5352 237.4 27.5352C235.602 27.5352 234.191 27.0371 233.167 26.041C232.171 25.0449 231.673 23.7998 231.673 22.3057ZM273.924 34.0928V41.3975H248.606V34.0928H273.924ZM255.911 23.0942H265.914V66.5903C265.914 67.9738 266.107 69.0391 266.495 69.7861C266.91 70.5055 267.477 70.9897 268.196 71.2388C268.916 71.4878 269.76 71.6123 270.728 71.6123C271.42 71.6123 272.084 71.5708 272.72 71.4878C273.357 71.4048 273.868 71.3218 274.256 71.2388L274.297 78.8755C273.467 79.1245 272.499 79.3459 271.392 79.5396C270.313 79.7332 269.068 79.8301 267.657 79.8301C265.36 79.8301 263.326 79.4289 261.556 78.6265C259.785 77.7964 258.401 76.4544 257.405 74.6006C256.409 72.7467 255.911 70.2842 255.911 67.2129V23.0942ZM301.441 79.8301C298.121 79.8301 295.118 79.2905 292.435 78.2114C289.778 77.1047 287.509 75.569 285.628 73.6045C283.774 71.64 282.349 69.3296 281.353 66.6733C280.357 64.0171 279.859 61.1533 279.859 58.082V56.4219C279.859 52.9079 280.371 49.7259 281.395 46.876C282.418 44.026 283.843 41.5911 285.669 39.5713C287.496 37.5238 289.654 35.9604 292.144 34.8813C294.634 33.8022 297.332 33.2627 300.237 33.2627C303.447 33.2627 306.255 33.8022 308.663 34.8813C311.07 35.9604 313.062 37.4823 314.639 39.4468C316.244 41.3836 317.434 43.694 318.208 46.3779C319.011 49.0618 319.412 52.0225 319.412 55.2598V59.5347H284.715V52.3545H309.534V51.5659C309.479 49.7674 309.119 48.0796 308.455 46.5024C307.819 44.9253 306.836 43.6525 305.508 42.6841C304.18 41.7157 302.409 41.2314 300.196 41.2314C298.536 41.2314 297.055 41.5911 295.755 42.3105C294.482 43.0023 293.417 44.0122 292.559 45.3403C291.701 46.6685 291.037 48.2733 290.567 50.1548C290.124 52.0086 289.903 54.0977 289.903 56.4219V58.082C289.903 60.0465 290.166 61.8727 290.691 63.5605C291.245 65.2207 292.047 66.6733 293.099 67.9185C294.15 69.1636 295.423 70.1458 296.917 70.8652C298.411 71.557 300.113 71.9028 302.022 71.9028C304.429 71.9028 306.574 71.4186 308.455 70.4502C310.337 69.4818 311.969 68.1121 313.353 66.3413L318.624 71.4463C317.655 72.8574 316.396 74.2132 314.847 75.5137C313.297 76.7865 311.402 77.8241 309.161 78.6265C306.947 79.4289 304.374 79.8301 301.441 79.8301ZM337.134 43.6802V79H327.132V34.0928H336.553L337.134 43.6802ZM335.35 54.8862L332.112 54.8447C332.14 51.6628 332.583 48.7437 333.44 46.0874C334.326 43.4312 335.543 41.1484 337.093 39.2393C338.67 37.3301 340.551 35.8636 342.737 34.8398C344.923 33.7884 347.358 33.2627 350.042 33.2627C352.2 33.2627 354.151 33.5671 355.894 34.1758C357.665 34.7568 359.173 35.7114 360.418 37.0396C361.691 38.3677 362.659 40.097 363.323 42.2275C363.987 44.3304 364.319 46.9175 364.319 49.9888V79H354.275V49.9473C354.275 47.7891 353.957 46.0874 353.321 44.8423C352.712 43.5695 351.813 42.6702 350.623 42.1445C349.461 41.5911 348.008 41.3145 346.265 41.3145C344.55 41.3145 343.014 41.6742 341.658 42.3936C340.302 43.113 339.154 44.0952 338.213 45.3403C337.3 46.5854 336.595 48.0243 336.097 49.6567C335.599 51.2892 335.35 53.0324 335.35 54.8862Z" fill="black"/>
<path d="M73.8571 0H26.1429C11.7046 0 0 11.6982 0 26.1287V73.8713C0 88.3018 11.7046 100 26.1429 100H73.8571C88.2954 100 100 88.3018 100 73.8713V26.1287C100 11.6982 88.2954 0 73.8571 0Z" fill="#F11F24"/>
<path d="M39.849 11.0746L10.9117 39.9961C5.34917 45.5556 5.34917 54.5694 10.9117 60.1289L39.849 89.0504C45.4116 94.61 54.4302 94.61 59.9928 89.0505L88.9301 60.1289C94.4927 54.5694 94.4927 45.5556 88.9301 39.9961L59.9928 11.0745C54.4302 5.51504 45.4116 5.51504 39.849 11.0746Z" fill="#78FFC7"/>
<path d="M49.9585 74.7378C64.1073 74.7378 75.5772 63.6683 75.5772 50.0134C75.5772 36.3585 64.1073 25.2891 49.9585 25.2891C35.8097 25.2891 24.3398 36.3585 24.3398 50.0134C24.3398 63.6683 35.8097 74.7378 49.9585 74.7378Z" fill="#7D4CCF"/>
</svg>
